<mxfile host="65bd71144e" scale="4" border="0">
    <diagram id="-BmAYUr0pwJ2uD23Ls4K" name="Page-1">
        <mxGraphModel dx="1026" dy="541" grid="1" gridSize="10" guides="1" tooltips="1" connect="1" arrows="1" fold="1" page="1" pageScale="1" pageWidth="583" pageHeight="827" math="0" shadow="0">
            <root>
                <mxCell id="0"/>
                <mxCell id="1" parent="0"/>
                <mxCell id="13" style="edgeStyle=none;html=1;endArrow=none;endFill=0;entryX=0.71;entryY=0.07;entryDx=0;entryDy=0;entryPerimeter=0;strokeWidth=4;" parent="1" source="4" edge="1">
                    <mxGeometry relative="1" as="geometry">
                        <mxPoint x="228.39999999999998" y="242.8" as="targetPoint"/>
                    </mxGeometry>
                </mxCell>
                <mxCell id="4" value="" style="ellipse;whiteSpace=wrap;html=1;aspect=fixed;strokeWidth=4;" parent="1" vertex="1">
                    <mxGeometry x="240" y="160" width="40" height="40" as="geometry"/>
                </mxCell>
                <mxCell id="14" style="edgeStyle=none;html=1;exitX=0.27;exitY=0.06;exitDx=0;exitDy=0;endArrow=none;endFill=0;exitPerimeter=0;strokeWidth=4;" parent="1" target="4" edge="1">
                    <mxGeometry relative="1" as="geometry">
                        <mxPoint x="290.79999999999995" y="242.39999999999998" as="sourcePoint"/>
                    </mxGeometry>
                </mxCell>
            </root>
        </mxGraphModel>
    </diagram>
</mxfile>